<?xml version="1.0" encoding="UTF-8"?>
<svg id="Layer_1" xmlns="http://www.w3.org/2000/svg" version="1.1" viewBox="0 0 2905.5 2630.6">
  <!-- Generator: Adobe Illustrator 29.8.2, SVG Export Plug-In . SVG Version: 2.1.1 Build 3)  -->
  <defs>
    <style>
      .st0 {
        stroke: red;
        stroke-miterlimit: 11.3;
        stroke-width: .7px;
      }

      .st0, .st1, .st2 {
        fill: none;
      }

      .st1 {
        stroke-miterlimit: 10;
      }

      .st1, .st2 {
        stroke: #cb3727;
        stroke-width: .7px;
      }

      .st2 {
        stroke-linecap: round;
        stroke-linejoin: round;
      }
    </style>
  </defs>
  <g>
    <path class="st0" d="M1440,1465.5h-109.1v8.5h-133.2v-8.5h-133.2v8.5h-133.2v-8.5h-133.2v8.5h-133.2v-8.5h-133.2v8.5h-133.2v-8.5h-133.2v8.5h-133.2v-8.5H22.7v109.1h-8.5v133.2h8.5v133.2h-8.5v133.2h8.5v133.2h-8.5v133.2h8.5v133.2h-8.5v133.2h8.5v109.1h109.1v-8.5h133.2v8.5h133.2v-8.5h133.2v8.5h133.2v-8.5h133.2v8.5h133.2v-8.5h133.2v8.5h133.2v-8.5h133.2v8.5h109.1v-109.1h8.5v-133.2h-8.5v-133.2h8.5v-133.2h-8.5v-133.2h8.5v-133.2h-8.5v-133.2h8.5v-133.2h-8.5v-109.1Z"/>
    <path d="M696.4,2051.6h-2.7v-21.4h13v2.3h-10.3v7.1h9.6v2.3h-9.6v9.7ZM714.2,2051.6h-2.7v-16.3h2.7v16.3ZM714.2,2044.3h-.8c0-2.1.2-3.8.6-5.1.4-1.4,1-2.4,1.7-3.1.8-.7,1.7-1,2.8-1h0c.4,0,.7,0,1,0,.3,0,.6.1.9.2h0l-.2,2.6c-.3-.1-.7-.2-1-.3-.4,0-.7-.1-1-.1h0c-1,0-1.7.3-2.3.8-.6.5-1,1.3-1.3,2.3-.3,1-.4,2.2-.4,3.5h0ZM729.8,2052h0c-1.5,0-2.8-.3-3.9-1-1.1-.6-2-1.6-2.7-2.9s-1-2.8-1-4.7h0c0-1.9.3-3.4,1-4.7.7-1.3,1.6-2.2,2.7-2.9,1.1-.6,2.4-1,3.9-1h0c1.5,0,2.7.3,3.9,1,1.1.6,2,1.6,2.7,2.9.7,1.3,1,2.8,1,4.7h0c0,1.9-.3,3.4-1,4.7-.7,1.3-1.5,2.2-2.7,2.9-1.1.6-2.4,1-3.9,1ZM729.7,2049.7h0c1.1,0,2-.3,2.7-.8.7-.5,1.3-1.2,1.7-2.2.4-.9.6-2,.6-3.3h0c0-1.9-.4-3.5-1.2-4.6-.8-1.1-2-1.7-3.6-1.7h0c-1.1,0-2,.3-2.7.8-.7.5-1.3,1.2-1.7,2.2-.4.9-.6,2-.6,3.3h0c0,1.9.4,3.4,1.2,4.5.8,1.1,2,1.7,3.6,1.7ZM756.7,2051.6h-2.6v-9.6c0-1.6-.4-2.7-1.1-3.5s-1.8-1.2-3-1.2h0c-1,0-1.8.3-2.5.8-.7.5-1.3,1.3-1.6,2.3-.4,1-.6,2.2-.6,3.5h-1c0-1.9.2-3.5.7-4.8.5-1.3,1.2-2.4,2.2-3.1s2.1-1.1,3.5-1.1h0c1.3,0,2.4.3,3.3.9.9.6,1.6,1.4,2.1,2.5s.7,2.3.7,3.8h0v9.6ZM745.1,2051.6h-2.7v-16.3h2.3l.4,3.7v12.5ZM768,2052h0c-.9,0-1.7-.2-2.4-.5s-1.3-.9-1.7-1.5c-.4-.7-.6-1.5-.6-2.6h0v-16.6h2.6v16.5c0,1.7.8,2.5,2.3,2.5h0c.5,0,.9,0,1.4-.2.4-.1.9-.3,1.5-.5h0l.4,1.9c-.6.2-1.2.5-1.7.6s-1.2.2-1.8.2ZM771.1,2037.2h-10.4v-1.8h10.4v1.8Z"/>
  </g>
  <g>
    <path class="st0" d="M2882.8,1465.5h-109.1v8.5h-133.2v-8.5h-133.2v8.5h-133.2v-8.5h-133.2v8.5h-133.2v-8.5h-133.2v8.5h-133.2v-8.5h-133.2v8.5h-133.2v-8.5h-109.1v109.1h-8.5v133.2h8.5v133.2h-8.5v133.2h8.5v133.2h-8.5v133.2h8.5v133.2h-8.5v133.2h8.5v109.1h109.1v-8.5h133.2v8.5h133.2v-8.5h133.2v8.5h133.2v-8.5h133.2v8.5h133.2v-8.5h133.2v8.5h133.2v-8.5h133.2v8.5h109.1v-109.1h8.5v-133.2h-8.5v-133.2h8.5v-133.2h-8.5v-133.2h8.5v-133.2h-8.5v-133.2h8.5v-133.2h-8.5v-109.1Z"/>
    <path d="M2147.3,2052.5h-8v-21.4h8c1.6,0,2.9.3,3.9.8,1,.5,1.8,1.2,2.3,2,.5.8.8,1.8.8,2.8h0c0,1.2-.3,2.3-1,3.2-.7.9-1.7,1.5-3,1.8h0c.9.1,1.6.4,2.3.9.7.5,1.2,1.1,1.6,1.8s.6,1.4.6,2.2h0c0,.7-.1,1.4-.4,2.1-.2.7-.6,1.3-1.2,1.9-.6.6-1.3,1-2.3,1.3-.9.3-2.1.5-3.5.5h0ZM2142,2043v7.2h5.3c1.6,0,2.8-.3,3.5-1,.7-.7,1.1-1.6,1.1-2.6h0c0-1.1-.4-1.9-1.2-2.6-.8-.7-1.9-1-3.4-1h-5.3ZM2147.2,2033.5h-5.3v7.3h5.2c1.3,0,2.4-.3,3.2-1,.8-.7,1.2-1.6,1.2-2.8h0c0-1.1-.4-2-1.1-2.6s-1.8-.9-3.2-.9h0ZM2172.8,2052.5h-2.3l-.3-3.6v-7c0-1.5-.3-2.5-.9-3.2-.6-.6-1.6-1-2.8-1h0c-.7,0-1.3.1-1.9.3-.6.2-1,.5-1.4.9-.3.4-.5,1-.5,1.6h-3c0-1.2.3-2.1.9-2.8.6-.7,1.4-1.2,2.4-1.6,1-.3,2.2-.5,3.5-.5h0c1.2,0,2.4.2,3.3.6,1,.4,1.7,1.1,2.3,2,.5.9.8,2.1.8,3.6h0v10.5ZM2165,2053h0c-1.3,0-2.4-.2-3.3-.7s-1.5-1.1-2-1.9c-.4-.8-.6-1.6-.6-2.4h0c0-1.1.3-2,.8-2.7s1.3-1.2,2.3-1.5c1-.3,2-.5,3.2-.5h0c.9,0,1.7,0,2.6.3.9.2,1.7.4,2.5.7h0v1.7c-.7-.3-1.4-.5-2.3-.6-.9-.2-1.6-.2-2.4-.2h0c-1.1,0-2,.2-2.8.7-.7.4-1.1,1.2-1.1,2.3h0c0,.8.3,1.5.9,2,.6.6,1.5.9,2.7.9h0c.9,0,1.7-.2,2.4-.6.7-.4,1.3-.9,1.7-1.6.4-.6.6-1.2.6-1.9h.6c0,1.1-.2,2.1-.7,3s-1.1,1.7-2,2.2c-.9.6-1.9.9-3.1.9ZM2184.9,2053h0c-1.3,0-2.5-.4-3.6-1.1s-2-1.7-2.7-3c-.7-1.3-1-2.8-1-4.5h0c0-1.8.3-3.3,1-4.6.7-1.3,1.6-2.2,2.7-2.9,1.1-.7,2.3-1,3.6-1h0c.9,0,1.7.1,2.5.4.7.3,1.4.7,1.9,1.1.5.5,1,1,1.4,1.7.4.6.6,1.3.8,1.9h0l-2.7.2c-.3-.9-.8-1.7-1.4-2.2-.7-.5-1.5-.8-2.4-.8h0c-.8,0-1.6.2-2.3.7s-1.3,1.1-1.7,2.1c-.4.9-.7,2-.7,3.4h0c0,1.3.2,2.3.6,3.3.4.9,1,1.6,1.7,2.2.7.5,1.5.8,2.4.8h0c1.3,0,2.2-.3,2.9-.9.7-.6,1-1.5,1-2.6h2.7c0,1.1-.3,2.1-.8,3-.5.9-1.3,1.6-2.3,2.1-1,.5-2.1.8-3.5.8ZM2199.4,2052.5h-2.7v-23.2h2.7v23.2ZM2199,2046v-2.8l8.3-6.9h3.7l-12,9.8ZM2211.4,2052.5h-3.3l-7.7-10.3,2.7-.5,8.3,10.7Z"/>
  </g>
  <g>
    <path class="st0" d="M589.6,14.2h-75.1v8.5h-133.2v-8.5h-75.1v109.1h8.5v133.2h-8.5v133.2h8.5v133.2h-8.5v133.2h8.5v133.2h-8.5v133.2h8.5v133.2h-8.5v109.1h75.1v-8.5h133.2v8.5h75.1v-109.1h-8.5v-133.2h8.5v-133.2h-8.5v-133.2h8.5v-133.2h-8.5v-133.2h8.5v-133.2h-8.5V123.3h8.5V14.2Z"/>
    <path d="M412.2,601.3h-2.7v-21.4h7.4c2.4,0,4.3.6,5.5,1.7,1.3,1.2,1.9,2.7,1.9,4.6h0c0,1.9-.6,3.4-1.9,4.5-1.3,1.2-3.1,1.7-5.5,1.7h-4.8v8.7ZM425,601.3h-3.4l-6.1-9.7h2.9l6.7,9.7ZM412.2,582.2v8.5h4.6c1.6,0,2.8-.4,3.6-1.2.8-.8,1.3-1.8,1.3-3.1h0c0-1.3-.4-2.3-1.2-3.1-.8-.8-2-1.1-3.5-1.1h-4.8ZM431.9,581.2h0c-.5,0-1-.2-1.3-.5-.3-.3-.5-.7-.5-1.2h0c0-.5.2-.9.5-1.2.3-.3.7-.4,1.3-.4h0c.5,0,1,.1,1.3.4.3.3.5.7.5,1.2h0c0,.5-.2.9-.5,1.2-.3.3-.7.5-1.3.5ZM433.2,601.3h-2.7v-16.3h2.7v16.3ZM446.3,609.7h0c-1.7,0-3.1-.2-4.3-.7-1.2-.5-2.2-1.1-2.8-1.9s-1-1.7-1-2.6h0c0-1.3.5-2.2,1.4-2.9.9-.7,2.1-1,3.6-1h0l1.5.9c-1.2,0-2.2.3-2.8.8-.7.5-1,1.2-1,2.1h0c0,.9.5,1.6,1.4,2.2,1,.6,2.3.9,4.2.9h0c1.4,0,2.6-.2,3.6-.6,1-.4,1.8-.9,2.4-1.5.6-.6.9-1.3.9-2h0c0-.5-.2-.9-.6-1.3s-.9-.6-1.7-.6h-6.3c-1.1,0-2-.2-2.8-.5-.8-.3-1.4-.8-1.8-1.3-.4-.5-.6-1.1-.6-1.8h0c0-.7.2-1.3.6-1.7.4-.5.9-.8,1.5-1.1.6-.2,1.3-.4,2-.4h0l.5,1c-.3,0-.7,0-1,.2-.3.2-.6.4-.9.7-.2.3-.3.7-.3,1.1h0c0,.5.2,1,.6,1.3s1.2.5,2.3.5h6.3c1.5,0,2.7.3,3.6,1,.9.6,1.3,1.5,1.3,2.7h0c0,1.1-.4,2.1-1.1,3.1-.8,1-1.8,1.8-3.3,2.4-1.4.6-3.1.9-5.1.9ZM446.8,596.6h0c-1.2,0-2.4-.2-3.4-.7-1-.5-1.8-1.2-2.4-2.1-.6-.9-.9-1.9-.9-3.1h0c0-1.2.3-2.2.9-3.1.6-.9,1.4-1.6,2.4-2.1,1-.5,2.1-.7,3.4-.7h0c1.2,0,2.3.2,3.3.7,1,.5,1.8,1.2,2.4,2.1s.9,1.9.9,3.1h0c0,1.2-.3,2.2-.9,3.1s-1.4,1.6-2.4,2.1c-1,.5-2.1.7-3.3.7ZM446.8,594.7h0c1.2,0,2.2-.4,2.9-1.2.7-.8,1-1.7,1-2.9h0c0-1.2-.3-2.2-1-2.9-.7-.7-1.7-1.1-2.9-1.1h0c-1.2,0-2.2.4-2.9,1.1-.7.7-1.1,1.7-1.1,2.9h0c0,1.2.4,2.1,1.1,2.9s1.7,1.2,2.9,1.2ZM452.1,587.2h0l-1.3-.5c0-1,.2-1.8.6-2.5s.9-1.3,1.6-1.7c.7-.4,1.5-.6,2.5-.6h0l-.2,2.6c-1,0-1.8.2-2.3.7-.5.4-.8,1.1-.8,2ZM473.9,601.3h-2.6v-9.6c0-1.6-.4-2.7-1.1-3.5-.7-.8-1.8-1.2-3-1.2h0c-1,0-1.8.3-2.5.8-.7.5-1.3,1.3-1.6,2.3-.4,1-.6,2.2-.6,3.5h-1c0-1.9.2-3.5.7-4.8.5-1.3,1.2-2.4,2.2-3.1,1-.7,2.1-1.1,3.5-1.1h0c1.3,0,2.4.3,3.3.9.9.6,1.6,1.4,2.1,2.5s.7,2.3.7,3.8h0v9.6ZM462.4,601.3h-2.7v-23.2h2.7v23.2ZM485.3,601.7h0c-.9,0-1.7-.2-2.4-.5-.7-.3-1.3-.9-1.7-1.5-.4-.7-.6-1.5-.6-2.6h0v-16.6h2.6v16.5c0,1.7.8,2.5,2.3,2.5h0c.5,0,.9,0,1.4-.2.4-.1.9-.3,1.5-.5h0l.4,1.9c-.6.2-1.2.5-1.7.6-.6.2-1.2.2-1.8.2ZM488.4,586.9h-10.4v-1.8h10.4v1.8Z"/>
  </g>
  <g>
    <path class="st0" d="M1330.9,1173.5h-133.2v8.5h-133.2v-8.5h-133.2v8.5h-133.2v-8.5h-133.2v8.5h-133.2v-8.5h-133.2v8.5h-133.2v-8.5h-133.2v8.5H22.7v66.6h-8.5v133.2h8.5v66.6h109.1v8.5h133.2v-8.5h133.2v8.5h133.2v-8.5h133.2v8.5h133.2v-8.5h133.2v8.5h133.2v-8.5h133.2v8.5h133.2v-8.5h109.1v-66.6h8.5v-133.2h-8.5v-66.6h-109.1v-8.5Z"/>
    <path d="M684.9,1326h-8v-21.4h8c1.6,0,2.9.3,3.9.8s1.8,1.2,2.3,2c.5.8.8,1.8.8,2.8h0c0,1.2-.3,2.3-1,3.2-.7.9-1.7,1.5-3,1.8h0c.9.1,1.6.4,2.3.9.7.5,1.2,1.1,1.6,1.8s.6,1.4.6,2.2h0c0,.7-.1,1.4-.4,2.1-.2.7-.6,1.3-1.2,1.9-.6.6-1.3,1-2.3,1.3-.9.3-2.1.5-3.5.5h0ZM679.6,1316.4v7.2h5.3c1.6,0,2.8-.3,3.5-1s1.1-1.6,1.1-2.6h0c0-1.1-.4-1.9-1.2-2.6-.8-.7-1.9-1-3.4-1h-5.3ZM684.8,1306.9h-5.3v7.3h5.2c1.3,0,2.4-.3,3.2-1,.8-.7,1.2-1.6,1.2-2.8h0c0-1.1-.4-2-1.1-2.6-.8-.6-1.8-.9-3.2-.9h0ZM703.9,1326.4h0c-1.5,0-2.8-.3-3.9-1-1.1-.6-2-1.6-2.7-2.9s-1-2.8-1-4.7h0c0-1.9.3-3.4,1-4.7.7-1.3,1.6-2.2,2.7-2.9,1.1-.6,2.4-1,3.9-1h0c1.5,0,2.7.3,3.9,1,1.1.6,2,1.6,2.7,2.9.7,1.3,1,2.8,1,4.7h0c0,1.9-.3,3.4-1,4.7-.7,1.3-1.5,2.2-2.7,2.9-1.1.6-2.4,1-3.9,1ZM703.9,1324.1h0c1.1,0,2-.3,2.7-.8s1.3-1.2,1.7-2.2c.4-.9.6-2,.6-3.3h0c0-1.9-.4-3.5-1.2-4.6-.8-1.1-2-1.7-3.6-1.7h0c-1.1,0-2,.3-2.7.8-.7.5-1.3,1.2-1.7,2.2s-.6,2-.6,3.3h0c0,1.9.4,3.4,1.2,4.5.8,1.1,2,1.7,3.6,1.7ZM721.6,1326.4h0c-.9,0-1.7-.2-2.4-.5-.7-.3-1.3-.9-1.7-1.5s-.6-1.5-.6-2.6h0v-16.6h2.6v16.5c0,1.7.8,2.5,2.3,2.5h0c.5,0,.9,0,1.4-.2.4-.1.9-.3,1.5-.5h0l.4,1.9c-.6.2-1.2.5-1.7.6-.6.2-1.2.2-1.8.2ZM724.7,1311.5h-10.4v-1.8h10.4v1.8ZM734.4,1326.4h0c-.9,0-1.7-.2-2.4-.5-.7-.3-1.3-.9-1.7-1.5-.4-.7-.6-1.5-.6-2.6h0v-16.6h2.6v16.5c0,1.7.8,2.5,2.3,2.5h0c.5,0,.9,0,1.4-.2.4-.1.9-.3,1.5-.5h0l.4,1.9c-.6.2-1.2.5-1.7.6-.6.2-1.2.2-1.8.2ZM737.5,1311.5h-10.4v-1.8h10.4v1.8ZM748.1,1326.4h0c-1.5,0-2.8-.3-3.9-1-1.1-.6-2-1.6-2.7-2.9-.7-1.3-1-2.8-1-4.7h0c0-1.9.3-3.4,1-4.7.7-1.3,1.6-2.2,2.7-2.9s2.4-1,3.9-1h0c1.5,0,2.7.3,3.9,1,1.1.6,2,1.6,2.7,2.9.7,1.3,1,2.8,1,4.7h0c0,1.9-.3,3.4-1,4.7-.7,1.3-1.5,2.2-2.7,2.9-1.1.6-2.4,1-3.9,1ZM748,1324.1h0c1.1,0,2-.3,2.7-.8.7-.5,1.3-1.2,1.7-2.2.4-.9.6-2,.6-3.3h0c0-1.9-.4-3.5-1.2-4.6-.8-1.1-2-1.7-3.6-1.7h0c-1.1,0-2,.3-2.7.8-.7.5-1.3,1.2-1.7,2.2s-.6,2-.6,3.3h0c0,1.9.4,3.4,1.2,4.5s2,1.7,3.6,1.7ZM786.3,1326h-2.7v-9.6c0-1.6-.4-2.7-1.1-3.5s-1.7-1.2-3-1.2h0c-1.5,0-2.6.6-3.4,1.7-.8,1.1-1.2,2.7-1.2,4.7h-1.2c0-1.5.1-2.7.4-3.8.3-1.1.7-2,1.3-2.7.6-.7,1.2-1.3,2-1.6.8-.4,1.7-.5,2.7-.5h0c1.3,0,2.4.3,3.3.9.9.6,1.6,1.4,2.1,2.5.5,1.1.7,2.3.7,3.8h0v9.6ZM763.5,1326h-2.7v-16.3h2.3l.3,3.3c.5-1.2,1.2-2.1,2.2-2.7.9-.6,2-1,3.3-1h0c1.3,0,2.4.3,3.3.9.9.6,1.6,1.4,2.1,2.5.5,1.1.7,2.3.7,3.8h0v9.6h-2.6v-9.6c0-1.6-.4-2.7-1.1-3.5-.7-.8-1.8-1.2-3-1.2h0c-1,0-1.8.3-2.5.8-.7.5-1.3,1.3-1.6,2.3-.4,1-.6,2.2-.6,3.5h0v7.7Z"/>
  </g>
  <g>
    <path class="st0" d="M2773.7,1173.5h-133.2v8.5h-133.2v-8.5h-133.2v8.5h-133.2v-8.5h-133.2v8.5h-133.2v-8.5h-133.2v8.5h-133.2v-8.5h-133.2v8.5h-109.1v66.6h-8.5v133.2h8.5v66.6h109.1v8.5h133.2v-8.5h133.2v8.5h133.2v-8.5h133.2v8.5h133.2v-8.5h133.2v8.5h133.2v-8.5h133.2v8.5h133.2v-8.5h109.1v-66.6h8.5v-133.2h-8.5v-66.6h-109.1v-8.5Z"/>
    <path d="M2154.2,1306.9h-7.6v-2.3h16.6v2.3h-7.6l.6-.6v19.7h-2.7v-19.7l.6.6ZM2172.8,1326.4h0c-1.5,0-2.8-.3-3.9-1-1.1-.6-2-1.6-2.7-2.9s-1-2.8-1-4.7h0c0-1.9.3-3.4,1-4.7.7-1.3,1.6-2.2,2.7-2.9,1.1-.6,2.4-1,3.9-1h0c1.5,0,2.7.3,3.9,1s2,1.6,2.7,2.9c.7,1.3,1,2.8,1,4.7h0c0,1.9-.3,3.4-1,4.7-.7,1.3-1.5,2.2-2.7,2.9-1.1.6-2.4,1-3.9,1ZM2172.7,1324.1h0c1.1,0,2-.3,2.7-.8.7-.5,1.3-1.2,1.7-2.2.4-.9.6-2,.6-3.3h0c0-1.9-.4-3.5-1.2-4.6-.8-1.1-2-1.7-3.6-1.7h0c-1.1,0-2,.3-2.7.8-.7.5-1.3,1.2-1.7,2.2-.4.9-.6,2-.6,3.3h0c0,1.9.4,3.4,1.2,4.5.8,1.1,2,1.7,3.6,1.7ZM2192.9,1326.4h0c-1.2,0-2.2-.3-3.1-.8-.9-.5-1.6-1.3-2-2.4-.5-1-.7-2.3-.7-3.8h1.1c0,1,.2,1.9.6,2.6.4.7,1,1.2,1.6,1.6.7.4,1.4.5,2.2.5h0c.8,0,1.6-.2,2.3-.7.7-.5,1.4-1.2,1.8-2.1.5-.9.7-2.1.7-3.4h0c0-1.3-.2-2.4-.7-3.3s-1-1.6-1.8-2.1c-.7-.5-1.6-.7-2.4-.7h0c-.8,0-1.5.2-2.2.6-.7.4-1.2.9-1.6,1.6-.4.7-.6,1.6-.6,2.7h-1.1c0-1.6.3-2.9.8-4,.5-1.1,1.2-1.9,2.1-2.4s1.9-.8,3-.8h0c1.3,0,2.5.3,3.6,1,1.1.7,2,1.7,2.7,2.9.7,1.3,1,2.8,1,4.6h0c0,1.8-.3,3.3-1,4.6-.7,1.3-1.6,2.3-2.7,2.9-1.1.7-2.3,1-3.6,1ZM2188.1,1334h-2.7v-24.3h2.2l.4,3.8v20.4Z"/>
  </g>
  <g id="SPLINE">
    <path class="st2" d="M387.3,1046h119.1v119.1h-119.1v-119.1Z"/>
  </g>
  <g id="SPLINE1" data-name="SPLINE">
    <path class="st2" d="M490.7,1057.7c2.2,0,3.9,1.8,3.9,3.9,0,0,0,2.2-1.8,3.9h-4.3c-1.8-1.8-1.8-3.9-1.8-3.9,0-2.2,1.8-3.9,3.9-3.9Z"/>
  </g>
  <g id="SPLINE2" data-name="SPLINE">
    <text/>
  </g>
  <g id="SPLINE3" data-name="SPLINE">
    <path class="st2" d="M490.7,1145.5c2.2,0,3.9,1.8,3.9,3.9,0,0,0,2.2-1.8,3.9h-4.3c-1.8-1.8-1.8-3.9-1.8-3.9,0-2.2,1.8-3.9,3.9-3.9Z"/>
  </g>
  <g id="SPLINE4" data-name="SPLINE">
    <path class="st2" d="M402.8,1145.5c2.2,0,3.9,1.8,3.9,3.9,0,0,0,2.2-1.8,3.9h-4.3c-1.8-1.8-1.8-3.9-1.8-3.9,0-2.2,1.8-3.9,3.9-3.9Z"/>
  </g>
  <circle class="st2" cx="447.2" cy="1105.7" r="43.5"/>
  <g id="SPLINE5" data-name="SPLINE">
    <path class="st2" d="M387.3,14.2h119.1v119.1h-119.1V14.2Z"/>
  </g>
  <g id="SPLINE6" data-name="SPLINE">
    <path class="st2" d="M490.7,25.8c2.2,0,3.9,1.8,3.9,3.9,0,0,0,2.2-1.8,3.9h-4.3c-1.8-1.8-1.8-3.9-1.8-3.9,0-2.2,1.8-3.9,3.9-3.9Z"/>
  </g>
  <g id="SPLINE7" data-name="SPLINE">
    <text/>
  </g>
  <g id="SPLINE8" data-name="SPLINE">
    <path class="st2" d="M490.7,113.7c2.2,0,3.9,1.8,3.9,3.9,0,0,0,2.2-1.8,3.9h-4.3c-1.8-1.8-1.8-3.9-1.8-3.9,0-2.2,1.8-3.9,3.9-3.9Z"/>
  </g>
  <g id="SPLINE9" data-name="SPLINE">
    <path class="st2" d="M402.8,113.7c2.2,0,3.9,1.8,3.9,3.9,0,0,0,2.2-1.8,3.9h-4.3c-1.8-1.8-1.8-3.9-1.8-3.9,0-2.2,1.8-3.9,3.9-3.9Z"/>
  </g>
  <circle class="st2" cx="447.2" cy="73.9" r="43.5"/>
  <path class="st0" d="M297.6,14.2h-75.1v8.5H89.3v-8.5H14.2v109.1h8.5v133.2h-8.5v133.2h8.5v133.2h-8.5v133.2h8.5v133.2h-8.5v133.2h8.5v133.2h-8.5v109.1h75.1v-8.5h133.2v8.5h75.1v-109.1h-8.5v-133.2h8.5v-133.2h-8.5v-133.2h8.5v-133.2h-8.5v-133.2h8.5v-133.2h-8.5V123.3h8.5V14.2Z"/>
  <g id="SPLINE10" data-name="SPLINE">
    <path class="st2" d="M95.3,1046h119.1v119.1h-119.1v-119.1Z"/>
  </g>
  <g id="SPLINE11" data-name="SPLINE">
    <path class="st2" d="M198.7,1057.7c2.2,0,3.9,1.8,3.9,3.9,0,0,0,2.2-1.8,3.9h-4.3c-1.8-1.8-1.8-3.9-1.8-3.9,0-2.2,1.8-3.9,3.9-3.9Z"/>
  </g>
  <g id="SPLINE12" data-name="SPLINE">
    <text/>
  </g>
  <g id="SPLINE13" data-name="SPLINE">
    <path class="st2" d="M198.7,1145.5c2.2,0,3.9,1.8,3.9,3.9,0,0,0,2.2-1.8,3.9h-4.3c-1.8-1.8-1.8-3.9-1.8-3.9,0-2.2,1.8-3.9,3.9-3.9Z"/>
  </g>
  <g id="SPLINE14" data-name="SPLINE">
    <path class="st2" d="M110.9,1145.5c2.2,0,3.9,1.8,3.9,3.9,0,0,0,2.2-1.8,3.9h-4.3c-1.8-1.8-1.8-3.9-1.8-3.9,0-2.2,1.8-3.9,3.9-3.9Z"/>
  </g>
  <circle class="st2" cx="155.2" cy="1105.7" r="43.5"/>
  <g id="SPLINE15" data-name="SPLINE">
    <path class="st2" d="M95.3,14.2h119.1v119.1h-119.1V14.2Z"/>
  </g>
  <path class="st2" d="M198.7,27.7h-12.8v46h0c0,0,0,.1,0,.2,0,17-13.8,30.8-30.8,30.8s-30.8-13.8-30.8-30.8,0-.1,0-.2V27.7h-12.8v46h0c0,0,0,.1,0,.2,0,24,19.5,43.5,43.5,43.5s43.5-19.5,43.5-43.5,0-.1,0-.2h0V27.7Z"/>
  <path class="st2" d="M712.3,58.7h-12.8v46h0c0,0,0,.1,0,.2,0,17-13.8,30.8-30.8,30.8s-30.8-13.8-30.8-30.8,0-.1,0-.2v-46h-12.8v46h0c0,0,0,.1,0,.2,0,24,19.5,43.5,43.5,43.5s43.5-19.5,43.5-43.5,0-.1,0-.2h0v-46Z"/>
  <path class="st2" d="M662.8,123.4h12.8v-46h0c0,0,0-.1,0-.2,0-17,13.8-30.8,30.8-30.8s30.8,13.8,30.8,30.8,0,.1,0,.2v46h12.8v-46h0c0,0,0-.1,0-.2,0-24-19.5-43.5-43.5-43.5s-43.5,19.5-43.5,43.5,0,.1,0,.2h0v46Z"/>
  <path class="st2" d="M804.6,76.2h-12.8v46h0c0,0,0,.1,0,.2,0,17-13.8,30.8-30.8,30.8s-30.8-13.8-30.8-30.8,0-.1,0-.2v-46h-12.8v46h0c0,0,0,.1,0,.2,0,24,19.5,43.5,43.5,43.5s43.5-19.5,43.5-43.5,0-.1,0-.2h0v-46Z"/>
  <path class="st2" d="M755.1,140.8h12.8v-46h0c0,0,0-.1,0-.2,0-17,13.8-30.8,30.8-30.8s30.8,13.8,30.8,30.8,0,.1,0,.2v46h12.8v-46h0c0,0,0-.1,0-.2,0-24-19.5-43.5-43.5-43.5s-43.5,19.5-43.5,43.5,0,.1,0,.2h0v46Z"/>
  <path class="st2" d="M896.9,98.7h-12.8v46h0c0,0,0,.1,0,.2,0,17-13.8,30.8-30.8,30.8s-30.8-13.8-30.8-30.8,0-.1,0-.2v-46h-12.8v46h0c0,0,0,.1,0,.2,0,24,19.5,43.5,43.5,43.5s43.5-19.5,43.5-43.5,0-.1,0-.2h0v-46Z"/>
  <path class="st2" d="M847.4,163.4h12.8v-46h0c0,0,0-.1,0-.2,0-17,13.8-30.8,30.8-30.8s30.8,13.8,30.8,30.8,0,.1,0,.2v46h12.8v-46h0c0,0,0-.1,0-.2,0-24-19.5-43.5-43.5-43.5s-43.5,19.5-43.5,43.5,0,.1,0,.2h0v46Z"/>
  <path class="st2" d="M989.2,116.2h-12.8v46h0c0,0,0,.1,0,.2,0,17-13.8,30.8-30.8,30.8s-30.8-13.8-30.8-30.8,0-.1,0-.2v-46h-12.8v46h0c0,0,0,.1,0,.2,0,24,19.5,43.5,43.5,43.5s43.5-19.5,43.5-43.5,0-.1,0-.2h0v-46Z"/>
  <path class="st2" d="M939.7,180.8h12.8v-46h0c0,0,0-.1,0-.2,0-17,13.8-30.8,30.8-30.8s30.8,13.8,30.8,30.8,0,.1,0,.2v46h12.8v-46h0c0,0,0-.1,0-.2,0-24-19.5-43.5-43.5-43.5s-43.5,19.5-43.5,43.5,0,.1,0,.2h0v46Z"/>
  <rect class="st2" x="14.2" y="1257.2" width="127.6" height="116.2" rx="9.6" ry="9.6"/>
  <rect class="st2" x="179.7" y="1258.3" width="1176.4" height="116.2"/>
  <rect class="st1" x="214.3" y="1637.1" width="1111.1" height="850.4" rx="59.9" ry="59.9"/>
  <rect class="st1" x="1780.5" y="1501.1" width="861.7" height="1122.4" rx="65.6" ry="65.6" transform="translate(4273.7 -149) rotate(90)"/>
</svg>